#!OML:ASF H:\Martial Arts Walks\Project 1\Capture day 1\Session 1\male.ASF
:FULLY-SPECIFIED
:DEGREES
1277
root -0.939 14.3342 26.6201 9.37281 1.56509 0.36162
lowerback 19.8547 -2.04065 -1.69434
upperback 0.515383 -2.68665 3.55318
thorax -10.3354 -1.07929 5.65547
lowerneck -3.85083 0.0806535 -2.30607
upperneck -3.34428 0.201125 0.959056
head -0.389775 0.123424 0.670764
rclavicle -3.97569e-015 -6.36111e-015
rhumerus -46.4172 18.672 -88.3543
rradius 82.9457
rwrist -55.3473
rhand -1.97594 -28.7052
rfingers 7.12502
rthumb 23.6965 -57.2645
lclavicle -3.97569e-015 -6.36111e-015
lhumerus 49.5111 -8.26071 63.8947
lradius 40.6929
lwrist -16.4916
lhand -22.2943 45.5112
lfingers 7.12502
lthumb 4.12461 75.451
rfemur -46.1479 -10.1358 21.4637
rtibia 78.7811
rfoot -27.2132 -25.1682
rtoes -13.7544
lfemur -56.2716 12.1876 -28.9968
ltibia 95.1389
lfoot -12.7856 16.7381
ltoes -6.10512
1278
root -0.94433 14.3677 26.4243 9.59028 1.40966 0.659685
lowerback 19.6628 -1.99368 -2.05148
upperback 0.498606 -2.71205 3.49738
thorax -10.2303 -1.07909 5.79389
lowerneck -3.86445 0.0657599 -2.31204
upperneck -3.14879 0.180759 0.902898
head -0.327615 0.112473 0.654171
rclavicle 8.15017e-015 -1.03368e-014
rhumerus -45.5666 18.4003 -88.3377
rradius 81.9866
rwrist -57.1105
rhand -4.86285 -31.4464
rfingers 7.12502
rthumb 20.9252 -60.3377
lclavicle 8.15017e-015 -1.03368e-014
lhumerus 49.51 -8.29297 64.0052
lradius 40.8987
lwrist -15.5011
lhand -22.2876 45.6449
lfingers 7.12502
lthumb 4.131 75.5846
rfemur -47.3199 -10.8201 21.3786
rtibia 78.6613
rfoot -26.6087 -24.0999
rtoes -13.3449
lfemur -52.9893 13.4557 -28.3745
ltibia 96.2634
lfoot -13.3022 17.0886
ltoes -6.07119
1279
root -0.947173 14.4027 26.2358 9.77465 1.27887 0.924122
lowerback 19.4393 -1.96782 -2.34745
upperback 0.478248 -2.74951 3.44397
thorax -10.1127 -1.0883 5.90108
lowerneck -3.9283 0.0607778 -2.31667
upperneck -2.92306 0.174867 0.836564
head -0.248397 0.108594 0.634463
rclavicle -1.80894e-014 1.19271e-014
rhumerus -44.7936 18.1101 -88.3278
rradius 81.3463
rwrist -59.3726
rhand -7.85106 -33.8258
rfingers 7.12502
rthumb 18.0521 -63.008
lclavicle -1.80894e-014 1.19271e-014
lhumerus 49.4802 -8.35387 64.0897
lradius 41.0533
lwrist -14.5452
lhand -22.2995 45.7137
lfingers 7.12502
lthumb 4.11954 75.6537
rfemur -48.3597 -11.5084 21.3215
rtibia 78.4507
rfoot -26.0173 -23.005
rtoes -13.0108
lfemur -49.3596 14.6286 -27.5054
ltibia 96.8359
lfoot -13.7807 17.2075
ltoes -5.77711
1280
root -0.948207 14.4338 26.0541 9.94115 1.2014 1.13832
lowerback 19.1747 -1.97076 -2.57343
upperback 0.446356 -2.80578 3.40708
thorax -9.98483 -1.10992 5.98908
lowerneck -4.06067 0.0789051 -2.34926
upperneck -2.646 0.203168 0.790381
head -0.143047 0.121807 0.626287
rclavicle 1.63003e-014 -9.54166e-015
rhumerus -44.1386 17.8101 -88.3143
rradius 81.1344
rwrist -61.9758
rhand -10.4411 -35.3115
rfingers 7.12502
rthumb 15.5589 -64.7057
lclavicle 1.63003e-014 -9.54166e-015
lhumerus 49.4122 -8.43046 64.1849
lradius 41.1484
lwrist -13.6858
lhand -22.347 45.7238
lfingers 7.12502
lthumb 4.07364 75.6646
rfemur -49.331 -12.206 21.3265
rtibia 78.2139
rfoot -25.4358 -21.9302
rtoes -12.7313
lfemur -45.491 15.6403 -26.4048
ltibia 96.9184
lfoot -14.2255 17.2766
ltoes -5.22351
1281
root -0.948385 14.4576 25.8781 10.1002 1.20359 1.32425
lowerback 18.8679 -2.0011 -2.75526
upperback 0.397463 -2.88478 3.38883
thorax -9.85032 -1.14425 6.07601
lowerneck -4.19439 0.102228 -2.3818
upperneck -2.38828 0.238705 0.731059
head -0.0434118 0.138519 0.614448
rclavicle -6.55989e-015 -7.95139e-015
rhumerus -43.6338 17.5007 -88.289
rradius 81.4373
rwrist -64.5862
rhand -12.3948 -35.9976
rfingers 7.12502
rthumb 13.6765 -65.5283
lclavicle -6.55989e-015 -7.95139e-015
lhumerus 49.3408 -8.53737 64.2893
lradius 41.1512
lwrist -12.9421
lhand -22.4367 45.6833
lfingers 7.12502
lthumb 3.98706 75.6257
rfemur -50.2874 -12.9338 21.3879
rtibia 78.0078
rfoot -24.888 -20.9045
rtoes -12.4109
lfemur -41.472 16.4291 -25.1388
ltibia 96.5546
lfoot -14.6038 17.4848
ltoes -4.33288
1282
root -0.948719 14.473 25.7066 10.2582 1.30335 1.489
lowerback 18.525 -2.05737 -2.91299
upperback 0.326584 -2.98874 3.39475
thorax -9.71621 -1.19087 6.18035
lowerneck -4.29088 0.11995 -2.41609
upperneck -2.18184 0.266172 0.662289
head 0.0347642 0.151206 0.599979
rclavicle 7.35503e-015 -4.77083e-015
rhumerus -43.3103 17.218 -88.267
rradius 82.343
rwrist -66.8269
rhand -13.734 -36.1493
rfingers 7.12502
rthumb 12.3856 -65.7624
lclavicle 7.35503e-015 -4.77083e-015
lhumerus 49.2884 -8.68422 64.405
lradius 41.0386
lwrist -12.3518
lhand -22.5546 45.5289
lfingers 7.12502
lthumb 3.87318 75.4735
rfemur -51.2538 -13.6894 21.5046
rtibia 77.8608
rfoot -24.3852 -19.9495
rtoes -12.0032
lfemur -37.3749 16.9709 -23.7577
ltibia 95.7763
lfoot -14.9117 17.9814
ltoes -3.11167
1283
root -0.949872 14.4806 25.5384 10.4182 1.5327 1.65171
lowerback 18.1735 -2.1537 -3.08209
upperback 0.23478 -3.14424 3.42689
thorax -9.591 -1.2604 6.3327
lowerneck -4.40902 0.137587 -2.4252
upperneck -1.98988 0.293244 0.579977
head 0.112183 0.163384 0.577336
rclavicle 4.77083e-015 -1.19271e-014
rhumerus -43.1511 17.0419 -88.2829
rradius 83.8887
rwrist -68.3975
rhand -13.9479 -35.28
rfingers 7.12502
rthumb 12.1793 -64.9054
lclavicle 4.77083e-015 -1.19271e-014
lhumerus 49.289 -8.85776 64.4725
lradius 40.7949
lwrist -11.9291
lhand -22.7396 45.4625
lfingers 7.12502
lthumb 3.69461 75.4103
rfemur -52.2356 -14.4874 21.656
rtibia 77.7842
rfoot -23.934 -19.0803
rtoes -11.4792
lfemur -33.2653 17.2453 -22.3161
ltibia 94.6011
lfoot -15.1492 18.8243
ltoes -1.6114
1284
root -0.952441 14.4818 25.3745 10.5855 1.87572 1.82824
lowerback 17.7949 -2.2802 -3.29981
upperback 0.118687 -3.34613 3.48206
thorax -9.46579 -1.34918 6.5476
lowerneck -4.43908 0.133606 -2.3967
upperneck -1.8929 0.287331 0.472815
head 0.146698 0.159084 0.539909
rclavicle 4.57205e-014 1.19271e-014
rhumerus -43.1549 17.0196 -88.3599
rradius 86.0702
rwrist -69.1505
rhand -13.8886 -34.7557
rfingers 7.12502
rthumb 12.2366 -64.3777
lclavicle 4.57205e-014 1.19271e-014
lhumerus 49.3407 -9.07867 64.4827
lradius 40.4204
lwrist -11.7067
lhand -22.9706 45.4284
lfingers 7.12502
lthumb 3.47153 75.3799
rfemur -53.2221 -15.3076 21.8137
rtibia 77.7732
rfoot -23.5354 -18.305
rtoes -10.8636
lfemur -29.1911 17.2862 -20.8629
ltibia 93.0345
lfoot -15.3654 20.0107
ltoes 0.0367128
1285
root -0.956714 14.4765 25.2121 10.7661 2.34033 2.05383
lowerback 17.4176 -2.43277 -3.59643
upperback -0.0159072 -3.59665 3.54591
thorax -9.34733 -1.45711 6.82792
lowerneck -4.50343 0.125705 -2.35838
upperneck -1.7837 0.276885 0.389265
head 0.190677 0.152453 0.508249
rclavicle 1.39149e-014 2.22639e-014
rhumerus -43.24 17.1686 -88.5002
rradius 88.8515
rwrist -69.199
rhand -13.0779 -33.5878
rfingers 7.12502
rthumb 13.0181 -63.1616
lclavicle 1.39149e-014 2.22639e-014
lhumerus 49.485 -9.38195 64.376
lradius 39.9426
lwrist -11.6725
lhand -23.2515 45.5438
lfingers 7.12502
lthumb 3.20026 75.4996
rfemur -54.2351 -16.1624 21.9371
rtibia 77.8335
rfoot -23.1625 -17.6277
rtoes -10.2385
lfemur -25.2264 17.1013 -19.4656
ltibia 91.1019
lfoot -15.6326 21.4592
ltoes 1.91407
1286
root -0.963281 14.4645 25.051 10.9541 2.93285 2.34195
lowerback 17.0477 -2.60268 -3.97432
upperback -0.181437 -3.88572 3.60355
thorax -9.25316 -1.57856 7.15661
lowerneck -4.55017 0.103385 -2.32709
upperneck -1.65053 0.247374 0.35574
head 0.239466 0.136416 0.492896
rclavicle -2.22639e-014 4.77083e-015
rhumerus -43.3731 17.457 -88.6977
rradius 92.1451
rwrist -68.7559
rhand -11.7792 -31.8467
rfingers 7.12502
rthumb 14.2697 -61.3364
lclavicle -2.22639e-014 4.77083e-015
lhumerus 49.6703 -9.85398 64.1398
lradius 39.4506
lwrist -11.828
lhand -23.6254 45.9779
lfingers 7.12502
lthumb 2.8391 75.9387
rfemur -55.2703 -17.0657 22.0093
rtibia 77.9665
rfoot -22.8099 -17.0431
rtoes -9.62368
lfemur -21.408 16.7135 -18.1486
ltibia 88.821
lfoot -15.9992 23.0466
ltoes 3.84825
1287
root -0.971086 14.4465 24.8908 11.1624 3.65918 2.70002
lowerback 16.6688 -2.78841 -4.41399
upperback -0.375879 -4.20773 3.64331
thorax -9.17299 -1.71239 7.50614
lowerneck -4.57931 0.0529264 -2.3106
upperneck -1.48151 0.180779 0.378268
head 0.297033 0.102034 0.496695
rclavicle -1.86858e-014 -1.66979e-014
rhumerus -43.4472 17.8698 -88.9202
rradius 95.8241
rwrist -68.0594
rhand -10.4379 -29.8201
rfingers 7.12502
rthumb 15.562 -59.214
lclavicle -1.86858e-014 -1.66979e-014
lhumerus 49.8787 -10.585 63.6883
lradius 39.0673
lwrist -12.1085
lhand -24.1381 46.7628
lfingers 7.12502
lthumb 2.34396 76.7297
rfemur -56.3477 -18.0486 22.0275
rtibia 78.1713
rfoot -22.4654 -16.5343
rtoes -9.0508
lfemur -17.7857 16.1325 -16.9435
ltibia 86.2114
lfoot -16.4684 24.6186
ltoes 5.67945
